# xmcd
#
# Track frame offsets: 
#        150
#        18480
#        31010
#        51132
#        67132
#        77025
#        89990
#        119128
#        140653
#        161737
#
# Disc length: 2372 seconds
#
# Revision: 3
# Processed by: cddbd v1.5.2PL0 Copyright (c) Steve Scherf et al.
# Submitted via: ExactAudioCopy v0.95b2
#
DISCID=9209420a
DTITLE=David Nevue - The Tower
DYEAR=1991
DGENRE=New Age
TTITLE0=Prelude
TTITLE1=The Tower
TTITLE2=The Princess
TTITLE3=Wheels in the Sky
TTITLE4=The Assimilation
TTITLE5=Voice in the Wilderness
TTITLE6=Midnight Moonlight
TTITLE7=Man of Sorrows
TTITLE8=Light
TTITLE9=Joy
EXTD=
EXTT0=
EXTT1=
EXTT2=
EXTT3=
EXTT4=
EXTT5=
EXTT6=
EXTT7=
EXTT8=
EXTT9=
PLAYORDER=
